<svg width="250" height="250" viewBox="0 0 250 250" fill="none" xmlns="http://www.w3.org/2000/svg">
<g clip-path="url(#clip0_6_58)">
<path d="M8.62073 47.414V112.069H17.2415V133.621H77.586V112.069H86.2067V47.414H8.62073Z" fill="#C8D2DA"/>
<path d="M163.793 47.414V112.069H172.414V133.621H232.759V112.069H241.379V47.414H163.793Z" fill="#C8D2DA"/>
<path d="M12.9311 250H237.069V168.104H12.9311V250Z" fill="#C8D2DA"/>
<path d="M237.069 168.104H12.9311L0 133.621H250L237.069 168.104Z" fill="#9EADB7"/>
<path d="M155.173 133.621H172.414V112.069H155.173V133.621Z" fill="#9EADB7"/>
<path d="M193.965 133.621H211.207V112.069H193.965V133.621Z" fill="#9EADB7"/>
<path d="M232.759 133.621H250V112.069H232.759V133.621Z" fill="#9EADB7"/>
<path d="M0 133.621H17.2414V112.069H0V133.621Z" fill="#9EADB7"/>
<path d="M38.7933 133.621H56.0347V112.069H38.7933V133.621Z" fill="#9EADB7"/>
<path d="M77.586 133.621H94.8275V112.069H77.586V133.621Z" fill="#9EADB7"/>
<path d="M116.379 133.621H133.621V112.069H116.379V133.621Z" fill="#9EADB7"/>
<path d="M0 21.5518H17.2414V0H0V21.5518Z" fill="#C8D2DA"/>
<path d="M38.7933 21.5518H56.0347V0H38.7933V21.5518Z" fill="#C8D2DA"/>
<path d="M77.586 21.5518H94.8275V0H77.586V21.5518Z" fill="#C8D2DA"/>
<path d="M107.759 155.173H73.2757C70.892 155.173 68.9653 153.241 68.9653 150.862C68.9653 148.483 70.892 146.552 73.2757 146.552H107.759C110.142 146.552 112.069 148.483 112.069 150.862C112.069 153.241 110.142 155.173 107.759 155.173Z" fill="#707D84"/>
<path d="M176.724 155.173H142.241C139.858 155.173 137.931 153.241 137.931 150.862C137.931 148.483 139.858 146.552 142.241 146.552H176.724C179.108 146.552 181.035 148.483 181.035 150.862C181.035 153.241 179.108 155.173 176.724 155.173Z" fill="#707D84"/>
<path d="M129.31 150.862C129.31 153.241 127.379 155.173 125 155.173C122.621 155.173 120.69 153.241 120.69 150.862C120.69 148.483 122.621 146.552 125 146.552C127.379 146.552 129.31 148.483 129.31 150.862Z" fill="#707D84"/>
<path d="M219.827 155.173H211.207C208.823 155.173 206.896 153.241 206.896 150.862C206.896 148.483 208.823 146.552 211.207 146.552H219.827C222.211 146.552 224.138 148.483 224.138 150.862C224.138 153.241 222.211 155.173 219.827 155.173Z" fill="#707D84"/>
<path d="M198.276 150.862C198.276 153.241 196.344 155.173 193.965 155.173C191.586 155.173 189.655 153.241 189.655 150.862C189.655 148.483 191.586 146.552 193.965 146.552C196.344 146.552 198.276 148.483 198.276 150.862Z" fill="#707D84"/>
<path d="M38.7933 193.965H30.1725C27.7889 193.965 25.8622 192.034 25.8622 189.655C25.8622 187.276 27.7889 185.345 30.1725 185.345H38.7933C41.1769 185.345 43.1036 187.276 43.1036 189.655C43.1036 192.035 41.1769 193.965 38.7933 193.965Z" fill="#9EADB7"/>
<path d="M77.586 193.965H73.2757C70.892 193.965 68.9653 192.034 68.9653 189.655C68.9653 187.276 70.892 185.345 73.2757 185.345H77.586C79.9697 185.345 81.8964 187.276 81.8964 189.655C81.8964 192.035 79.9697 193.965 77.586 193.965Z" fill="#9EADB7"/>
<path d="M60.3451 189.655C60.3451 192.035 58.4139 193.966 56.0347 193.966C53.6555 193.966 51.7244 192.035 51.7244 189.655C51.7244 187.276 53.6555 185.345 56.0347 185.345C58.4139 185.345 60.3451 187.276 60.3451 189.655Z" fill="#9EADB7"/>
<path d="M56.0347 232.759H30.1725C27.7889 232.759 25.8622 230.827 25.8622 228.448C25.8622 226.069 27.7889 224.138 30.1725 224.138H56.0347C58.4184 224.138 60.3451 226.069 60.3451 228.448C60.3451 230.827 58.4179 232.759 56.0347 232.759Z" fill="#9EADB7"/>
<path d="M77.586 232.759H73.2757C70.892 232.759 68.9653 230.827 68.9653 228.448C68.9653 226.069 70.892 224.138 73.2757 224.138H77.586C79.9697 224.138 81.8964 226.069 81.8964 228.448C81.8964 230.827 79.9697 232.759 77.586 232.759Z" fill="#9EADB7"/>
<path d="M219.827 193.965H193.965C191.582 193.965 189.655 192.034 189.655 189.655C189.655 187.276 191.582 185.345 193.965 185.345H219.827C222.211 185.345 224.138 187.276 224.138 189.655C224.138 192.035 222.211 193.965 219.827 193.965Z" fill="#9EADB7"/>
<path d="M176.724 193.965H172.414C170.03 193.965 168.104 192.034 168.104 189.655C168.104 187.276 170.03 185.345 172.414 185.345H176.724C179.108 185.345 181.035 187.276 181.035 189.655C181.035 192.035 179.108 193.965 176.724 193.965Z" fill="#9EADB7"/>
<path d="M176.724 232.759H172.414C170.03 232.759 168.104 230.827 168.104 228.448C168.104 226.069 170.03 224.138 172.414 224.138H176.724C179.108 224.138 181.035 226.069 181.035 228.448C181.035 230.827 179.108 232.759 176.724 232.759Z" fill="#9EADB7"/>
<path d="M219.827 232.759H211.207C208.823 232.759 206.896 230.827 206.896 228.448C206.896 226.069 208.823 224.138 211.207 224.138H219.827C222.211 224.138 224.138 226.069 224.138 228.448C224.138 230.827 222.211 232.759 219.827 232.759Z" fill="#9EADB7"/>
<path d="M198.276 228.448C198.276 230.827 196.344 232.759 193.965 232.759C191.586 232.759 189.655 230.827 189.655 228.448C189.655 226.069 191.586 224.138 193.965 224.138C196.344 224.138 198.276 226.069 198.276 228.448Z" fill="#9EADB7"/>
<path d="M38.7933 155.173H30.1725C27.7889 155.173 25.8622 153.241 25.8622 150.862C25.8622 148.483 27.7889 146.552 30.1725 146.552H38.7933C41.1769 146.552 43.1036 148.483 43.1036 150.862C43.1036 153.241 41.1769 155.173 38.7933 155.173Z" fill="#707D84"/>
<path d="M51.7244 150.862C51.7244 148.483 53.6555 146.552 56.0347 146.552C58.4139 146.552 60.3451 148.483 60.3451 150.862C60.3451 153.241 58.4139 155.173 56.0347 155.173C53.6555 155.173 51.7244 153.241 51.7244 150.862Z" fill="#707D84"/>
<path d="M86.2067 47.414H8.62072L0 21.5518H94.8275L86.2067 47.414Z" fill="#9EADB7"/>
<path d="M155.173 21.5518H172.414V0H155.173V21.5518Z" fill="#C8D2DA"/>
<path d="M193.965 21.5518H211.207V0H193.965V21.5518Z" fill="#C8D2DA"/>
<path d="M232.759 21.5518H250V0H232.759V21.5518Z" fill="#C8D2DA"/>
<path d="M241.379 47.414H163.793L155.173 21.5518H250L241.379 47.414Z" fill="#9EADB7"/>
<path d="M150.862 250H99.1378V215.517C99.1378 201.233 110.715 189.655 125 189.655C139.285 189.655 150.862 201.233 150.862 215.517V250Z" fill="#9EADB7"/>
<path d="M133.621 250H116.379V215.517C116.379 210.754 120.237 206.896 125 206.896C129.763 206.896 133.621 210.754 133.621 215.517V250Z" fill="#707D84"/>
<path d="M56.0347 94.8275H38.7933V73.2757C38.7933 68.5128 42.6511 64.6549 47.414 64.6549C52.1769 64.6549 56.0347 68.5128 56.0347 73.2757V94.8275Z" fill="#9EADB7"/>
<path d="M211.207 94.8275H193.965V73.2757C193.965 68.5128 197.823 64.6549 202.586 64.6549C207.349 64.6549 211.207 68.5128 211.207 73.2757V94.8275Z" fill="#9EADB7"/>
</g>
<defs>
<clipPath id="clip0_6_58">
<rect width="250" height="250" fill="white"/>
</clipPath>
</defs>
</svg>
