<svg width="250" height="250" viewBox="0 0 250 250" fill="none" xmlns="http://www.w3.org/2000/svg">
<path d="M125 4.16666V62.5" stroke="#38454F" stroke-width="2" stroke-miterlimit="10" stroke-linecap="round"/>
<path d="M179.2 29.1667H129.2V4.16666H179.2L162.533 16.6667L179.2 29.1667Z" fill="#EFCE4A"/>
<path d="M212.5 245.833L125 62.5L37.5 245.833H212.5Z" fill="#8A9A6D"/>
<path d="M96.325 245.721L125.337 146.167C125.396 146.038 125.583 146.038 125.642 146.167L154.658 245.833L96.325 245.721Z" fill="#3A3F2D"/>
<path d="M125 66.6667L145.833 45.8333" stroke="#556080" stroke-width="2" stroke-miterlimit="10" stroke-linecap="round"/>
<path d="M104.167 45.8333L125 66.6667" stroke="#556080" stroke-width="2" stroke-miterlimit="10" stroke-linecap="round"/>
<path d="M20.8334 245.833C20.8334 245.833 70.3125 87.5 125 62.5" stroke="#556080" stroke-width="2" stroke-miterlimit="10" stroke-linecap="round"/>
<path d="M229.167 245.833C229.167 245.833 179.687 87.5 125 62.5" stroke="#556080" stroke-width="2" stroke-miterlimit="10" stroke-linecap="round"/>
<path d="M20.8333 245.833L4.16663 225" stroke="#556080" stroke-width="2" stroke-miterlimit="10" stroke-linecap="round"/>
<path d="M229.167 245.833L245.833 225" stroke="#556080" stroke-width="2" stroke-miterlimit="10" stroke-linecap="round"/>
<path d="M154.658 245.833L166.708 200.642C169.517 190.104 165.9 178.9 157.463 171.992L125.492 145.833L154.658 245.833Z" fill="#596344"/>
<path d="M58.3334 245.833C60.6346 245.833 62.5001 243.968 62.5001 241.667C62.5001 239.365 60.6346 237.5 58.3334 237.5C56.0322 237.5 54.1667 239.365 54.1667 241.667C54.1667 243.968 56.0322 245.833 58.3334 245.833Z" fill="#C6D1B0"/>
<path d="M75 245.833C77.3012 245.833 79.1667 243.968 79.1667 241.667C79.1667 239.365 77.3012 237.5 75 237.5C72.6989 237.5 70.8334 239.365 70.8334 241.667C70.8334 243.968 72.6989 245.833 75 245.833Z" fill="#C6D1B0"/>
<path d="M66.6667 237.5C68.9679 237.5 70.8333 235.635 70.8333 233.333C70.8333 231.032 68.9679 229.167 66.6667 229.167C64.3655 229.167 62.5 231.032 62.5 233.333C62.5 235.635 64.3655 237.5 66.6667 237.5Z" fill="#C6D1B0"/>
<path d="M66.6667 220.833C68.9679 220.833 70.8333 218.968 70.8333 216.667C70.8333 214.365 68.9679 212.5 66.6667 212.5C64.3655 212.5 62.5 214.365 62.5 216.667C62.5 218.968 64.3655 220.833 66.6667 220.833Z" fill="#C6D1B0"/>
<path d="M83.3334 220.833C85.6346 220.833 87.5001 218.968 87.5001 216.667C87.5001 214.365 85.6346 212.5 83.3334 212.5C81.0322 212.5 79.1667 214.365 79.1667 216.667C79.1667 218.968 81.0322 220.833 83.3334 220.833Z" fill="#C6D1B0"/>
<path d="M75 212.5C77.3012 212.5 79.1667 210.635 79.1667 208.333C79.1667 206.032 77.3012 204.167 75 204.167C72.6989 204.167 70.8334 206.032 70.8334 208.333C70.8334 210.635 72.6989 212.5 75 212.5Z" fill="#C6D1B0"/>
<path d="M66.6667 204.167C68.9679 204.167 70.8333 202.301 70.8333 200C70.8333 197.699 68.9679 195.833 66.6667 195.833C64.3655 195.833 62.5 197.699 62.5 200C62.5 202.301 64.3655 204.167 66.6667 204.167Z" fill="#C6D1B0"/>
<path d="M50 237.5C52.3012 237.5 54.1667 235.635 54.1667 233.333C54.1667 231.032 52.3012 229.167 50 229.167C47.6989 229.167 45.8334 231.032 45.8334 233.333C45.8334 235.635 47.6989 237.5 50 237.5Z" fill="#C6D1B0"/>
<path d="M83.3334 237.5C85.6346 237.5 87.5001 235.635 87.5001 233.333C87.5001 231.032 85.6346 229.167 83.3334 229.167C81.0322 229.167 79.1667 231.032 79.1667 233.333C79.1667 235.635 81.0322 237.5 83.3334 237.5Z" fill="#C6D1B0"/>
<path d="M75 229.167C77.3012 229.167 79.1667 227.301 79.1667 225C79.1667 222.699 77.3012 220.833 75 220.833C72.6989 220.833 70.8334 222.699 70.8334 225C70.8334 227.301 72.6989 229.167 75 229.167Z" fill="#C6D1B0"/>
<path d="M58.3334 229.167C60.6346 229.167 62.5001 227.301 62.5001 225C62.5001 222.699 60.6346 220.833 58.3334 220.833C56.0322 220.833 54.1667 222.699 54.1667 225C54.1667 227.301 56.0322 229.167 58.3334 229.167Z" fill="#C6D1B0"/>
<path d="M191.667 245.833C193.968 245.833 195.833 243.968 195.833 241.667C195.833 239.365 193.968 237.5 191.667 237.5C189.365 237.5 187.5 239.365 187.5 241.667C187.5 243.968 189.365 245.833 191.667 245.833Z" fill="#C6D1B0"/>
<path d="M175 245.833C177.301 245.833 179.167 243.968 179.167 241.667C179.167 239.365 177.301 237.5 175 237.5C172.699 237.5 170.833 239.365 170.833 241.667C170.833 243.968 172.699 245.833 175 245.833Z" fill="#C6D1B0"/>
<path d="M183.333 237.5C185.635 237.5 187.5 235.635 187.5 233.333C187.5 231.032 185.635 229.167 183.333 229.167C181.032 229.167 179.167 231.032 179.167 233.333C179.167 235.635 181.032 237.5 183.333 237.5Z" fill="#C6D1B0"/>
<path d="M183.333 220.833C185.635 220.833 187.5 218.968 187.5 216.667C187.5 214.365 185.635 212.5 183.333 212.5C181.032 212.5 179.167 214.365 179.167 216.667C179.167 218.968 181.032 220.833 183.333 220.833Z" fill="#C6D1B0"/>
<path d="M166.667 220.833C168.968 220.833 170.833 218.968 170.833 216.667C170.833 214.365 168.968 212.5 166.667 212.5C164.365 212.5 162.5 214.365 162.5 216.667C162.5 218.968 164.365 220.833 166.667 220.833Z" fill="#C6D1B0"/>
<path d="M175 212.5C177.301 212.5 179.167 210.635 179.167 208.333C179.167 206.032 177.301 204.167 175 204.167C172.699 204.167 170.833 206.032 170.833 208.333C170.833 210.635 172.699 212.5 175 212.5Z" fill="#C6D1B0"/>
<path d="M183.333 204.167C185.635 204.167 187.5 202.301 187.5 200C187.5 197.699 185.635 195.833 183.333 195.833C181.032 195.833 179.167 197.699 179.167 200C179.167 202.301 181.032 204.167 183.333 204.167Z" fill="#C6D1B0"/>
<path d="M200 237.5C202.301 237.5 204.167 235.635 204.167 233.333C204.167 231.032 202.301 229.167 200 229.167C197.699 229.167 195.833 231.032 195.833 233.333C195.833 235.635 197.699 237.5 200 237.5Z" fill="#C6D1B0"/>
<path d="M166.667 237.5C168.968 237.5 170.833 235.635 170.833 233.333C170.833 231.032 168.968 229.167 166.667 229.167C164.365 229.167 162.5 231.032 162.5 233.333C162.5 235.635 164.365 237.5 166.667 237.5Z" fill="#C6D1B0"/>
<path d="M175 229.167C177.301 229.167 179.167 227.301 179.167 225C179.167 222.699 177.301 220.833 175 220.833C172.699 220.833 170.833 222.699 170.833 225C170.833 227.301 172.699 229.167 175 229.167Z" fill="#C6D1B0"/>
<path d="M191.667 229.167C193.968 229.167 195.833 227.301 195.833 225C195.833 222.699 193.968 220.833 191.667 220.833C189.365 220.833 187.5 222.699 187.5 225C187.5 227.301 189.365 229.167 191.667 229.167Z" fill="#C6D1B0"/>
<path d="M125.492 145.833L96.325 245.833L84.275 200.642C81.4667 190.104 85.0833 178.9 93.5208 171.992L125.492 145.833Z" fill="#596344"/>
</svg>
